<?xml version="1.0" encoding="utf-8" ?><svg xmlns="http://www.w3.org/2000/svg" xmlns:xlink="http://www.w3.org/1999/xlink" width="14466" height="14466" viewBox="0 0 14466 14466"><path fill="#FBFBFB" transform="scale(3.53162 3.53162)" d="M0 0L4096 0L4096 4096L0 4096L0 0Z"/><path fill="#002038" transform="scale(3.53162 3.53162)" d="M982.04 1331.88C995.569 1332.87 1103.46 1376.86 1122.17 1384.03L1526.66 1538.65C1523.71 1715.94 1533.75 1901.83 1519.54 2077.6L1376.41 2077.62C1393.86 2002.49 1391.16 1921.4 1391.1 1844.65L1390.8 1638L985.155 1482.05L575.924 1638.07L575.931 1879C575.916 1964.78 571.101 2041.25 600.103 2123.99C626.127 2198.23 662.441 2249.05 713.856 2306.68C790.259 2387.37 887.561 2452.25 985.125 2504.23C1030.91 2481.71 1069.92 2457.86 1112.54 2430.22L1325.43 2430.19C1203.4 2545.6 1132.47 2584.53 983.742 2659.63C738.181 2535.65 480.959 2346.17 444.394 2050.66C436.69 1988.39 439.541 1917.96 439.559 1854.7L439.287 1537.6C492.744 1520.69 570.327 1488.4 624.685 1467.69L982.04 1331.88Z"/><path fill="#002038" transform="scale(3.53162 3.53162)" d="M977.132 1650.81C1061.85 1637.81 1158.36 1690.44 1217.55 1746.95C1186.26 1777.53 1152.44 1807.89 1120.18 1837.61C1088.98 1805.34 1057.45 1787.26 1011.52 1784.29C968.296 1781.69 925.788 1796.21 893.197 1824.73C827.339 1883.35 820.34 1991.27 880.48 2056.19C910.449 2088.51 952.178 2107.4 996.243 2108.58C1046.71 2109.83 1083.67 2091.84 1119.16 2057.67L1154.47 2091.32L1216.98 2150.63C1163.64 2200.12 1098.19 2236.58 1024.92 2242.6C859.277 2256.2 721.988 2134.84 707.035 1971.86C699.994 1892.83 724.963 1814.28 776.345 1753.83C828.62 1691.44 896.634 1657.74 977.132 1650.81Z"/><path fill="#00798E" transform="scale(3.53162 3.53162)" d="M2957.69 1731.4L3016.1 1731.5L3015.93 1902.47C3036.7 1879.32 3054.09 1866.04 3086.79 1862.43C3118.1 1858.74 3149.58 1867.81 3174.12 1887.59C3234.18 1935.65 3233.6 2027.29 3185.93 2084.25C3139.28 2137.31 3056.25 2141.39 3012.79 2079.78L3009.42 2116.21L2957.68 2116.21L2957.69 1731.4Z"/><path fill="#F7F7F8" transform="scale(3.53162 3.53162)" d="M3073.22 1916.5C3174.12 1908.45 3190.44 2039.01 3103.75 2067.53C3085.49 2070.01 3073.81 2070.45 3056.45 2063.4C3002.68 2041.53 3001.65 1954.5 3049.46 1925.82C3057.24 1921.16 3064.76 1919.01 3073.22 1916.5Z"/><path fill="#002038" transform="scale(3.53162 3.53162)" d="M2181.87 1858.28C2256.23 1854.39 2319.62 1911.62 2323.32 1986C2327.01 2060.37 2269.6 2123.6 2195.21 2127.09C2121.12 2130.56 2058.19 2073.42 2054.51 1999.34C2050.83 1925.26 2107.8 1862.16 2181.87 1858.28Z"/><path fill="#F7F7F8" transform="scale(3.53162 3.53162)" d="M2181.95 1918.95C2222.69 1915.22 2258.84 1945.01 2262.96 1985.71C2267.08 2026.42 2237.64 2062.84 2196.97 2067.35C2155.76 2071.92 2118.73 2041.99 2114.56 2000.73C2110.38 1959.48 2140.66 1922.74 2181.95 1918.95Z"/><path fill="#002038" transform="scale(3.53162 3.53162)" d="M1883.25 1748.82C1938.09 1742.71 1990.37 1769 2027.3 1807.79L1981.1 1847.92C1970.91 1838.23 1962.16 1830.25 1949.84 1823.17C1912.3 1801.6 1855.06 1805.76 1821.5 1833.66C1766.52 1879.37 1761.6 1974.64 1807.11 2028.78C1826.72 2052.1 1854.91 2066.54 1885.29 2068.82C1921.52 2071.86 1946.88 2060.49 1973.6 2038.03C1980.47 2031.69 1977.94 2032 1984.96 2032.18C2000.82 2042.05 2014.67 2059.69 2027.37 2073.98C1958.51 2137.92 1851.14 2144.06 1776.46 2085.81C1673.5 2005.5 1692.13 1820.25 1813.62 1766.68C1839.17 1755.42 1855.23 1751.25 1883.25 1748.82Z"/><path fill="#00798E" transform="scale(3.53162 3.53162)" d="M2668.09 1748.84C2669.66 1748.76 2671.22 1748.7 2672.79 1748.67C2724.35 1747.75 2765.81 1768.1 2802.31 1803.08C2787.38 1819.17 2772.07 1832.19 2755.63 1846.66C2737.02 1827.35 2717.85 1812.97 2690.34 1809.16C2520.35 1785.6 2505.47 2057.2 2667.32 2067.72C2704.7 2070.15 2728.84 2057.8 2755.98 2033.43C2758.76 2030.34 2757.15 2031.68 2761.77 2030.41C2774.97 2038.18 2791.96 2058.93 2802.48 2071.1C2774.41 2101.33 2736.15 2120.12 2695.07 2123.85C2439.4 2149.37 2407.66 1767.07 2668.09 1748.84Z"/><path fill="#00798E" transform="scale(3.53162 3.53162)" d="M3370.42 1860.6C3427.99 1853.83 3481.12 1883.92 3500.39 1939.13C3508.93 1963.6 3509.77 1982.45 3510 2008.2L3316.2 2008.15C3333.32 2082.25 3403.58 2104.21 3453.56 2045.45L3490.54 2080C3468.29 2102.98 3448.81 2116.37 3415.97 2122.62C3290.25 2146.53 3212.67 2012.82 3281.74 1910.75C3301.82 1881.07 3334.63 1866.09 3370.42 1860.6Z"/><path fill="#F7F7F8" transform="scale(3.53162 3.53162)" d="M3380.17 1906.53C3424.42 1904.59 3441.3 1930 3452.72 1968.04L3396.5 1967.94L3315.87 1967.99C3326.63 1932.02 3342.33 1912.62 3380.17 1906.53Z"/><path fill="#F7F7F8" transform="scale(3.53162 3.53162)" d="M312.842 3664.2C346.584 3662.27 377.224 3671.79 401.148 3696.92C421.796 3718.67 432.471 3748.02 430.616 3777.96C428.852 3807.54 415.102 3835.13 392.541 3854.35C369.025 3874.19 340.548 3881.53 310.492 3878.51L293.059 3875.36C282.601 3882.74 274.79 3888.15 261.737 3889.64C247.912 3891.36 233.976 3887.46 223.045 3878.82C212.407 3870.41 205.838 3857.88 204.971 3844.35C203.92 3827.99 209.928 3816.03 220.348 3804.19C206.205 3732.73 239.141 3676.87 312.842 3664.2Z"/><path fill="#000E1F" transform="scale(3.53162 3.53162)" d="M2368.79 1736.18L2431.79 1736.22L2431.77 2116.18L2368.66 2116.21C2371.28 1992.82 2368.82 1860.48 2368.79 1736.18Z"/><path fill="#002038" transform="scale(3.53162 3.53162)" d="M2375.82 1743.02L2424.32 1743.08L2424.54 2110.74C2408.51 2111.02 2391.93 2110.84 2375.85 2110.88L2375.82 1743.02Z"/><path fill="#00798E" transform="scale(3.53162 3.53162)" d="M3678.64 1860.61C3684.58 1860.33 3687.84 1859.54 3693.05 1862.34C3700.08 1874.33 3696.3 1904.74 3696.28 1921.58C3609.63 1896.83 3605.21 1992.03 3610.06 2048.9C3611.72 2068.38 3610.12 2096.08 3610.14 2116.22C3598.02 2116.33 3560.82 2117.61 3550.91 2114.81L3549.63 2110.5L3549.55 1868.66L3609.85 1868.72L3609.77 1902.58C3611.93 1899.38 3614.18 1896.26 3616.54 1893.21C3634.77 1870.01 3650.71 1863.97 3678.64 1860.61Z"/><path fill="#00798E" transform="scale(3.53162 3.53162)" d="M2840.14 1869.71L2900.78 1869.59C2899.74 1951.14 2900.52 2034.57 2900.68 2116.25L2840.08 2116.2L2840.14 1869.71Z"/><path fill="#002038" transform="scale(3.53162 3.53162)" d="M2023.62 2249.52L2049.57 2249.58C2068.46 2300.32 2093.5 2357.49 2114.25 2408.18L2085.39 2408.2C2080.61 2398.13 2078.1 2386.12 2071.92 2377C2067.9 2371.07 2063.83 2372.49 2056.5 2372.18L2002.9 2372.16L1988.77 2408.22L1960.14 2408.25C1981.78 2356.33 2002.68 2301.9 2023.62 2249.52Z"/><path fill="#F7F7F8" transform="scale(3.53162 3.53162)" d="M2036.01 2287.05C2041.2 2293.68 2057.59 2337.62 2061.62 2347.94L2040.68 2347.97L2011.64 2348.01C2019.64 2330.16 2028.63 2305.66 2036.01 2287.05Z"/><path fill="#016A85" transform="scale(3.53162 3.53162)" d="M1307.99 2300.05C1340.07 2299.9 1372.15 2299.97 1404.23 2300.28C1403.8 2331.63 1403.87 2362.99 1404.44 2394.34C1373.54 2395.27 1342.62 2395.79 1311.71 2395.92C1310.98 2364.45 1308.99 2331.81 1307.99 2300.05Z"/><path fill="#00798E" transform="scale(3.53162 3.53162)" d="M1313.75 2304.6C1330.9 2305.88 1388.33 2303.82 1396.2 2307.02C1398.65 2309.47 1401.42 2313.03 1401.25 2316.61C1399.99 2342.13 1400.37 2366.68 1401.35 2392.2C1372.58 2391.09 1343.78 2390.72 1314.98 2391.11C1315.51 2372.85 1309.61 2315.56 1313.75 2304.6Z"/><path fill="#002038" transform="scale(3.53162 3.53162)" d="M2238.83 2248.29C2267.16 2245.79 2277.54 2250.29 2300 2265.42L2282.64 2283.7C2253.07 2260.25 2220.11 2276.82 2226.55 2294.03C2236.86 2321.58 2334.06 2323.07 2298.01 2387.55C2290.2 2401.53 2271.02 2407.58 2255.55 2411.09C2228.72 2413.77 2214.31 2406.85 2193.92 2391.76L2212.89 2372.28C2254.51 2409.83 2322.65 2361.35 2233.62 2336.4C2190.46 2324.3 2179.81 2267.61 2238.83 2248.29Z"/><path fill="#002038" transform="scale(3.53162 3.53162)" d="M1798.64 2248.47C1827.15 2245.68 1837.86 2250.09 1860.43 2265.56L1843.39 2283.57C1827.52 2271.19 1803.53 2263.36 1789.1 2284.1C1783.05 2292.79 1791.63 2303.71 1799.68 2307.31C1834.81 2323.01 1885.73 2337.21 1858.71 2386.94C1850.87 2401.24 1834.72 2406.42 1819.31 2410.46C1816.44 2410.83 1813.56 2411.1 1810.67 2411.27C1788.08 2412.41 1772.39 2404.89 1756.09 2390.43L1773.7 2372.48C1794.66 2391.54 1842.95 2395.97 1834.71 2355.79C1833.21 2348.47 1802.15 2338.34 1793.93 2335.27C1742.52 2316.07 1748.89 2265.98 1798.64 2248.47Z"/><path fill="#00798E" transform="scale(3.53162 3.53162)" d="M1328.58 2159.03L1365.79 2158.28C1363.57 2188.19 1363.9 2222.14 1365.43 2252.13C1347.77 2252.03 1330.1 2251.55 1312.45 2250.69L1271.75 2249.98C1272.14 2219.89 1272.11 2189.79 1271.66 2159.69L1328.58 2159.03Z"/><path fill="#00798E" transform="scale(3.53162 3.53162)" d="M1169.86 2301.05C1201.15 2300.16 1232.46 2299.78 1263.77 2299.89C1260.72 2324.4 1260.29 2366.54 1260.18 2391.76C1249.64 2393.59 1183.17 2392.58 1169.48 2392.5C1170.25 2362.46 1169.85 2331.19 1169.86 2301.05Z"/><path fill="#016A85" transform="scale(3.53162 3.53162)" d="M1419.81 2159.81L1509.46 2159.7C1507.66 2189.04 1508.21 2220.69 1508.22 2250.28C1478.77 2251.29 1449.31 2251.88 1419.84 2252.03L1419.81 2159.81Z"/><path fill="#00798E" transform="scale(3.53162 3.53162)" d="M1424.93 2162.7C1450.25 2163.58 1479.41 2162.94 1505.02 2162.98C1505.21 2191.32 1505.2 2219.66 1505 2248C1478.61 2248.33 1451.71 2246.05 1424.72 2246.39C1425.4 2232.63 1421.58 2170.14 1424.93 2162.7Z"/><path fill="#00798E" transform="scale(3.53162 3.53162)" d="M2863.4 1748.77C2882.13 1744.99 2900.38 1757.11 2904.16 1775.84C2907.93 1794.57 2895.81 1812.81 2877.08 1816.59C2858.36 1820.37 2840.11 1808.25 2836.34 1789.52C2832.56 1770.79 2844.68 1752.55 2863.4 1748.77Z"/><path fill="#F7F7F8" transform="scale(3.53162 3.53162)" d="M482.206 3742.01C495.915 3741.66 517.523 3737.43 525.44 3748.52L524.021 3752.32C515.286 3758.06 505.081 3749.9 497.175 3758.07C498.106 3774.01 515.882 3763.09 523.676 3771.24L522.131 3775.81C516.897 3779.68 505.364 3778.42 495.837 3779.56C501.543 3802.74 510.151 3782.03 526.772 3794.53C526.411 3801.09 527.749 3798.47 524.009 3803.1C510.716 3804.11 495.518 3803.66 482.027 3803.56L482.206 3742.01Z"/><path fill="#F7F7F8" transform="scale(3.53162 3.53162)" d="M547.307 3834.52C559.582 3831.3 572.204 3838.36 575.889 3850.5C579.574 3862.65 573.004 3875.53 561.013 3879.68C552.835 3882.51 543.764 3880.64 537.372 3874.8C530.98 3868.97 528.291 3860.11 530.363 3851.71C532.435 3843.31 538.936 3836.71 547.307 3834.52Z"/><path fill="#F7F7F8" transform="scale(3.53162 3.53162)" d="M585.171 3736.61C594.649 3738.12 593.452 3736.36 598.577 3741.93C597.864 3749.23 596.388 3755.38 601.607 3761.27C609.442 3760.83 614.309 3759.66 621.136 3763.34C629.796 3773.19 634.135 3802.5 617.007 3804.25C611.564 3799.72 613.403 3802.65 612.504 3794.5C612.662 3786.03 613.027 3782.82 611.308 3774.67C606.231 3769.9 609.117 3770.82 603.083 3770.22C596.703 3778.83 603.001 3792.5 593.207 3803.25L588.044 3802.92C583.188 3796.18 585.181 3748.58 585.171 3736.61Z"/><path fill="#F7F7F8" transform="scale(3.53162 3.53162)" d="M542.136 3679.91C556.921 3681.94 570.974 3686.95 567.666 3705.48C559.042 3711.31 546.189 3703.79 538.602 3710.16L540.133 3714.18C548.278 3716.34 554.112 3713.89 562.372 3711.72C564.676 3715.61 564.721 3715.29 564.388 3719.77C546.704 3740.79 491.25 3704.41 542.136 3679.91Z"/><path fill="#F7F7F8" transform="scale(3.53162 3.53162)" d="M785.543 3759.93C801.349 3758.36 815.316 3762.12 817.727 3780.41C812.263 3789.21 794.517 3783.77 787.304 3790.96C797.139 3795.26 799.227 3793.48 808.048 3789.53L812.805 3795.06L811.456 3799.51C793.785 3812.62 746.757 3793.08 785.543 3759.93Z"/><path fill="#F7F7F8" transform="scale(3.53162 3.53162)" d="M651.778 3758.17C653.201 3758.39 654.619 3758.62 656.034 3758.89C689.161 3765.23 679.179 3823.38 634.185 3799.91C628.557 3771.19 649.296 3782.88 658.931 3773.7C654.91 3770.27 645.024 3771.46 635.812 3768.87L635.616 3766.4C640.34 3761.13 644.993 3760.42 651.778 3758.17Z"/><path fill="#F7F7F8" transform="scale(3.53162 3.53162)" d="M559.35 3758.98L565.242 3759.25C578.405 3768.28 579.911 3788.77 573.797 3802.33C567.433 3804.25 570.317 3804.7 564.831 3802.32C556.881 3787 568.642 3780.52 553.126 3768.57C540.501 3783.52 556.292 3791.99 541.826 3805.03C530.165 3801.23 531.894 3771.8 534.629 3762.06C540.395 3759.05 548.461 3762.98 559.35 3758.98Z"/><path fill="#F7F7F8" transform="scale(3.53162 3.53162)" d="M707.074 3758.41C710.126 3759.01 713.733 3760.02 716.811 3760.78C726.7 3769.52 728.56 3791.84 721.653 3802.7C714.933 3803.63 718.163 3804.02 711.692 3801.01C707.045 3792.04 713.341 3786.4 709.103 3774.35C703.436 3769.83 706.756 3771.36 698.174 3771.28C695.24 3784.13 697.776 3799.47 690.928 3806.1C682.238 3798.76 677.763 3778.31 681.34 3767.53C685.035 3756.39 693.209 3764.81 707.074 3758.41Z"/><path fill="#F7F7F8" transform="scale(3.53162 3.53162)" d="M482.104 3663.54C485.668 3663.57 493.81 3663.13 495.462 3666.18C501.468 3677.25 498.244 3699.6 498.225 3712.52C505.765 3712.13 511.246 3711.34 518.619 3713.1C523.255 3718.78 521.701 3715.43 521.747 3724.14C510.082 3725.57 494.173 3725.28 482.087 3725.38L482.104 3663.54Z"/><path fill="#F7F7F8" transform="scale(3.53162 3.53162)" d="M637.537 3679.91C645.075 3680.68 651.595 3680.94 657.39 3685.57L657.451 3689.51C649.663 3694.83 650.437 3690.57 639.025 3693.07C641.544 3698.22 651.808 3703.48 658.018 3708.06C660.861 3714.33 660.674 3711.25 659.014 3717.6C654.304 3723.19 650.898 3724.2 644.369 3727.39C637.289 3726.68 628.728 3725.64 623.54 3720.69L623.894 3716.75C630.932 3712.58 634.119 3715.06 644.429 3714.22C639.349 3702.65 621.38 3705.84 624.423 3690.36C629.196 3684.28 631.003 3683.71 637.537 3679.91Z"/><path fill="#F7F7F8" transform="scale(3.53162 3.53162)" d="M752.001 3757.87L753.771 3758.12C762.846 3759.47 764.938 3759.29 770.005 3766.15C762.482 3774.61 747.637 3769.14 745.115 3783.81C754.141 3799.9 754.933 3785.47 770.706 3796.58C760.389 3814.7 736.016 3802.69 731.123 3786.36C729.66 3781.43 730.267 3776.11 732.804 3771.63C737.27 3763.69 744.006 3760.94 752.001 3757.87Z"/><path fill="#F7F7F8" transform="scale(3.53162 3.53162)" d="M576.92 3669.5C580.679 3669.87 583.93 3670.39 587.659 3670.99L590.752 3679.95C594.39 3682.02 595.107 3682.26 599.013 3683.27L599.799 3687.84C596.711 3691.34 593.675 3694.88 590.69 3698.46C588.819 3705.69 588.815 3705.15 591.246 3712.22C597.993 3716 599.149 3716.15 602.339 3723.33C593.847 3726.75 589.833 3728.18 581.375 3723.87C573.202 3711.05 582.092 3699.12 570.559 3690.97L569.894 3685.99C575.274 3679.15 576.086 3678.14 576.92 3669.5Z"/><path fill="#002038" transform="scale(3.53162 3.53162)" d="M2146.55 2375C2155.39 2370.42 2166.28 2373.89 2170.83 2382.75C2175.38 2391.61 2171.87 2402.48 2162.99 2407C2154.16 2411.49 2143.36 2408 2138.83 2399.19C2134.31 2390.37 2137.76 2379.56 2146.55 2375Z"/><path fill="#002038" transform="scale(3.53162 3.53162)" d="M2335.6 2374.87C2344.51 2370.45 2355.3 2374.09 2359.72 2383C2364.13 2391.91 2360.48 2402.7 2351.56 2407.1C2342.67 2411.5 2331.89 2407.85 2327.49 2398.96C2323.08 2390.07 2326.71 2379.29 2335.6 2374.87Z"/><path fill="#002038" transform="scale(3.53162 3.53162)" d="M1902.58 2373.06C1912.27 2372.04 1921 2378.96 1922.2 2388.63C1923.41 2398.3 1916.66 2407.15 1907.02 2408.55C1900.61 2409.47 1894.21 2406.87 1890.27 2401.73C1886.33 2396.6 1885.47 2389.74 1888.02 2383.79C1890.58 2377.85 1896.14 2373.74 1902.58 2373.06Z"/><path fill="#F7F7F8" transform="scale(3.53162 3.53162)" d="M508.365 3834.76C517.473 3835.97 515.682 3834.3 520.814 3839.6C524.184 3852 522.276 3866.66 521.891 3880.13C513.412 3879.3 514.331 3880.8 509.517 3876.16C505.444 3862.5 507.691 3849.48 508.365 3834.76Z"/><path fill="#F7F7F8" transform="scale(3.53162 3.53162)" d="M610.403 3665.01C614.799 3662.68 620.258 3664.32 622.628 3668.7C624.999 3673.08 623.394 3678.55 619.033 3680.96C614.626 3683.39 609.082 3681.76 606.685 3677.33C604.289 3672.91 605.958 3667.38 610.403 3665.01Z"/><path fill="#F7F7F8" transform="scale(3.53162 3.53162)" d="M488.839 3860.99C493.468 3859.44 498.486 3861.87 500.143 3866.46C501.801 3871.05 499.492 3876.13 494.943 3877.89C491.901 3879.07 488.459 3878.51 485.948 3876.43C483.437 3874.35 482.253 3871.07 482.853 3867.86C483.454 3864.65 485.745 3862.02 488.839 3860.99Z"/><path fill="#F7F7F8" transform="scale(3.53162 3.53162)" d="M509.679 3814.86C513.587 3811.98 519.083 3812.77 522.029 3816.62C524.976 3820.48 524.287 3825.99 520.48 3829C517.958 3831 514.556 3831.48 511.581 3830.26C508.606 3829.04 506.52 3826.31 506.126 3823.12C505.732 3819.92 507.09 3816.77 509.679 3814.86Z"/></svg>