<svg id="Grupo_3758" data-name="Grupo 3758" xmlns="http://www.w3.org/2000/svg" xmlns:xlink="http://www.w3.org/1999/xlink" width="241.912" height="45.813" viewBox="0 0 241.912 45.813">
  <defs>
    <clipPath id="clip-path">
      <rect id="Rectángulo_2639" data-name="Rectángulo 2639" width="241.912" height="45.813" fill="none"/>
    </clipPath>
  </defs>
  <g id="Grupo_3757" data-name="Grupo 3757" clip-path="url(#clip-path)">
    <path id="Trazado_13227" data-name="Trazado 13227" d="M38.633,37.626A17.447,17.447,0,0,1,34.6,41.59C21.624,51.237,3.262,43.485.367,27.148-1.871,14.514,6.362,2.309,18.448.334A5.58,5.58,0,0,0,20.29,0h2.979a25.7,25.7,0,0,0,2.8.464A21.7,21.7,0,0,1,39.149,8.822c.1.137.325.246.229.5-.321-.116-.484-.419-.7-.655A15.561,15.561,0,0,0,28.267,3.3a19.814,19.814,0,0,0-10.88,2.189C11.521,8.534,8.517,13.632,7.9,20.359l.009-.015c-.234.391-.1.82-.119,1.234a17.179,17.179,0,0,0,.016,2.809c0,.344-.114.7.1,1.023v.049a6.876,6.876,0,0,0,.166,1.608c.871,5.272,3.237,9.529,7.7,12.365a19.924,19.924,0,0,0,12.909,3.124,14.992,14.992,0,0,0,9.06-4.363c.25-.24.406-.714.9-.568" transform="translate(0)" fill="#102236"/>
    <path id="Trazado_13228" data-name="Trazado 13228" d="M764.641,32.1a8.83,8.83,0,0,1-1.023,1.817,3.124,3.124,0,0,1-3.891.523,3.477,3.477,0,0,1-1.447-3.887,3.189,3.189,0,0,1,6.2.236c.029.136-.05.323.159.378Zm-.6-.546a2.693,2.693,0,1,0-2.673,2.838,2.8,2.8,0,0,0,2.673-2.838" transform="translate(-522.729 -19.043)" fill="#102236"/>
    <path id="Trazado_13229" data-name="Trazado 13229" d="M25.437,27.058c.614-6.728,3.619-11.826,9.485-14.874A19.814,19.814,0,0,1,45.8,9.995a15.564,15.564,0,0,1,10.411,5.367c.216.236.379.539.7.655l-.018-.009c-.006.116.042.178.158.172l-.008-.013c-.058.138.044.191.125.254A15.208,15.208,0,0,1,60,21.71,23.435,23.435,0,0,1,58.19,41.482a10.573,10.573,0,0,1-1.769,2.37c-.234.07-.426.165-.266.475l.013,0c-.49-.146-.645.328-.9.568a14.989,14.989,0,0,1-9.06,4.363A19.921,19.921,0,0,1,33.3,46.132c-4.462-2.837-6.828-7.093-7.7-12.365a6.861,6.861,0,0,1-.166-1.608.873.873,0,0,1,.175.5A14.358,14.358,0,0,0,38.676,44.37c8.963.56,16.244-7.879,14.759-17.108A14.419,14.419,0,0,0,39.909,14.884c-6.331-.36-12.337,4.268-14.1,10.856a3.772,3.772,0,0,1-.367,1.318" transform="translate(-17.535 -6.699)" fill="#a1ba29"/>
    <path id="Trazado_13230" data-name="Trazado 13230" d="M477.005,48.036a19.465,19.465,0,0,1,10.818-5.114,12.452,12.452,0,0,1,6.978,1.039c2.1.95,3.065,2.915,2.761,5.714-.478,4.391-1.026,8.774-1.577,13.156a2.62,2.62,0,0,1-2.8,2.68,13.2,13.2,0,0,1-1.488.009c-1.249-.065-1.808-.715-1.676-2.008.206-2.005.45-4.006.684-6.008.255-2.181.547-4.359.768-6.544A4.431,4.431,0,0,0,488.38,46.3a8.818,8.818,0,0,0-8.983,1.833,7.262,7.262,0,0,0-2.192,5.01c-.356,3.339-.785,6.671-1.206,10a2.334,2.334,0,0,1-2.085,2.265,6.444,6.444,0,0,1-2.294.08c-1.218-.156-1.7-.786-1.573-2.061.147-1.491.358-2.975.54-4.462.527-4.307,1.083-8.612,1.568-12.924.283-2.513,1.758-3.695,4.142-3.177.93.2,1.339.9,1.176,1.989-.151,1.014-.3,2.029-.468,3.186" transform="translate(-324.074 -28.843)" fill="#102236"/>
    <path id="Trazado_13231" data-name="Trazado 13231" d="M581.257,65.53a16.939,16.939,0,0,1-5.148-.609c-5.981-1.7-8.629-7.191-6.336-13.223a12.46,12.46,0,0,1,7.317-7.464,20.37,20.37,0,0,1,14.2-.423c3.306,1.094,5.678,3.321,6.234,7.072.649,4.373-1.1,10.86-7.58,13.249a25.883,25.883,0,0,1-8.684,1.4m3.148-20.261a9.069,9.069,0,0,0-5.356,1.545A10.376,10.376,0,0,0,575.143,57.3c.588,2.814,2.091,4.74,4.813,5.513a8.926,8.926,0,0,0,3.1.216c3.6-.256,6.336-1.877,7.764-5.486a15.53,15.53,0,0,0,.839-3.283c.8-5.017-2.4-9-7.257-8.995" transform="translate(-392.282 -28.838)" fill="#102236"/>
    <path id="Trazado_13232" data-name="Trazado 13232" d="M260.649,65.548a14.734,14.734,0,0,1-7.429-1.526c-4.312-2.291-5.935-7.1-4.083-12.125a12.806,12.806,0,0,1,9.253-8.286,20.076,20.076,0,0,1,13,.489,8.289,8.289,0,0,1,5.592,7.187c.469,4.881-1.625,10.635-7.641,12.87a25.442,25.442,0,0,1-8.7,1.391m3.111-20.258a9.2,9.2,0,0,0-5.034,1.365A10.288,10.288,0,0,0,254.453,56.7c.445,2.833,1.7,4.983,4.41,5.977a9.063,9.063,0,0,0,3.6.382,8.332,8.332,0,0,0,7.951-5.986,17.182,17.182,0,0,0,.6-2.313c1.05-5.291-2.166-9.484-7.25-9.473" transform="translate(-171.253 -28.86)" fill="#102236"/>
    <path id="Trazado_13233" data-name="Trazado 13233" d="M361.162,60.893c1.413-2.59,2.747-5.028,4.075-7.47,1.6-2.942,3.191-5.89,4.8-8.829a3.758,3.758,0,0,1,4.459-1.483,1.7,1.7,0,0,1,.941,2.459,21.441,21.441,0,0,1-1.189,2.231c-3.039,5.266-6.121,10.505-9.1,15.8a3.363,3.363,0,0,1-2.955,1.954,17.728,17.728,0,0,1-4.154-.113,2.13,2.13,0,0,1-1.853-1.6c-1.81-5.7-3.7-11.374-5.55-17.061q-1.046-3.215,2.166-3.82a4.092,4.092,0,0,1,1.916.087,2,2,0,0,1,1.453,1.486c1.634,5.4,3.3,10.8,5,16.356" transform="translate(-241.574 -28.922)" fill="#102236"/>
    <path id="Trazado_13234" data-name="Trazado 13234" d="M687.319,43.041a14.55,14.55,0,0,1,7.816,1.724,6.087,6.087,0,0,1,2.116,1.915,1.517,1.517,0,0,1-.01,1.791c-.875,1.412-3.417,1.781-4.3.347-1.8-2.934-4.582-3.363-7.584-3.081-4.366.409-6.476,3.421-7.723,7.4a8.744,8.744,0,0,0-.088,4.818A6.6,6.6,0,0,0,684.1,63.09a9.271,9.271,0,0,0,6.91-2.694,14.244,14.244,0,0,1,1.388-1.167,3.073,3.073,0,0,1,3.187-.187.831.831,0,0,1,.475,1.288,7.19,7.19,0,0,1-2.406,2.794,13.923,13.923,0,0,1-6.446,2.382,21.768,21.768,0,0,1-9.432-.584c-2.689-.837-4.92-2.321-5.991-5.206a9.951,9.951,0,0,1-.116-5.941c.934-3.871,2.849-6.96,6.349-8.8a18.674,18.674,0,0,1,7.518-1.925c.592-.042,1.189-.006,1.784-.006" transform="translate(-462.829 -29.035)" fill="#102236"/>
    <path id="Trazado_13235" data-name="Trazado 13235" d="M174.033,42.909a15.272,15.272,0,0,1,7.557,1.621,6.246,6.246,0,0,1,2.426,2.117,1.51,1.51,0,0,1-.068,1.786c-.857,1.348-3.376,1.742-4.25.323-1.822-2.959-4.625-3.392-7.652-3.094-4.326.426-6.416,3.427-7.669,7.37a8.643,8.643,0,0,0-.084,4.882,6.6,6.6,0,0,0,6.509,5.1,9.248,9.248,0,0,0,6.916-2.672c.386-.364.788-.712,1.2-1.046a3.115,3.115,0,0,1,3.373-.342c.623.254.806.664.486,1.332a7.987,7.987,0,0,1-3.9,3.665,18.808,18.808,0,0,1-9.054,1.692,16.752,16.752,0,0,1-6.809-1.374c-4-1.865-5.687-5.392-4.754-9.864.806-3.866,2.47-7.124,5.895-9.159a17.2,17.2,0,0,1,6.617-2.134,31.963,31.963,0,0,1,3.265-.2" transform="translate(-108.942 -28.955)" fill="#102236"/>
    <path id="Trazado_13236" data-name="Trazado 13236" d="M438.723,65.722a8.277,8.277,0,0,1-.961-.076c-1.55-.3-1.862-.737-1.674-2.334q1.04-8.845,2.087-17.689a2.663,2.663,0,0,1,2.844-2.616c.519-.007,1.039-.019,1.557,0,1.226.052,1.736.548,1.658,1.846-.095,1.569-.317,3.132-.507,4.694q-.7,5.727-1.414,11.451c-.1.82-.162,1.648-.313,2.458a2.488,2.488,0,0,1-1.806,2.054,4.573,4.573,0,0,1-1.47.209" transform="translate(-300.64 -29.015)" fill="#102236"/>
    <path id="Trazado_13237" data-name="Trazado 13237" d="M124.24,114.727c-.16-.31.032-.405.266-.475a.356.356,0,0,1-.266.475" transform="translate(-85.621 -77.099)" fill="#102236"/>
    <path id="Trazado_13238" data-name="Trazado 13238" d="M127.326,29.363c-.082-.063-.183-.116-.125-.254.256-.03.132.143.125.254" transform="translate(-87.691 -19.641)" fill="#102236"/>
    <path id="Trazado_13239" data-name="Trazado 13239" d="M126.911,28.746c-.116.006-.164-.056-.158-.172.188-.079.179.04.158.172" transform="translate(-87.393 -19.265)" fill="#102236"/>
    <path id="Trazado_13240" data-name="Trazado 13240" d="M25.169,62.563a2.658,2.658,0,0,1-.119,1.234c.02-.414-.115-.843.119-1.234" transform="translate(-17.257 -42.218)" fill="#a1ba29"/>
    <path id="Trazado_13241" data-name="Trazado 13241" d="M25.079,75a2.01,2.01,0,0,1,.1,1.023c-.211-.322-.1-.678-.1-1.023" transform="translate(-17.271 -50.608)" fill="#a1ba29"/>
    <path id="Trazado_13242" data-name="Trazado 13242" d="M57.025,64.348a5.81,5.81,0,1,1,5.595-5.792,5.715,5.715,0,0,1-5.595,5.792" transform="translate(-35.493 -35.588)" fill="#102236"/>
    <path id="Trazado_13243" data-name="Trazado 13243" d="M766.336,34.683a1.254,1.254,0,0,1,.513,1.259c0,.188.106.416-.227.419-.281,0-.406-.113-.4-.411a1.13,1.13,0,0,0-.1-.677c-.267-.419-.687-.387-1.07-.335-.422.058-.163.449-.23.685-.078.271.206.756-.367.729s-.292-.5-.3-.767c-.037-.8,0-1.6-.02-2.4-.01-.379.069-.59.484-.55.392.038.789.029,1.182.057.459.033.886.125,1.053.673a1.1,1.1,0,0,1-.519,1.316m-1.5-.865c-.076.364-.02.671.5.6.411-.054.893,0,.884-.65-.009-.675-.532-.524-.918-.6-.5-.1-.514.223-.467.645" transform="translate(-526.833 -22.02)" fill="#102236"/>
  </g>
</svg>
