<?xml version="1.0" encoding="UTF-8"?>
<svg width="128" height="128" viewBox="0 0 128 128" fill="none" xmlns="http://www.w3.org/2000/svg">
  <defs>
    <linearGradient id="colciber-logo-gradient" x1="14" y1="18" x2="114" y2="118" gradientUnits="userSpaceOnUse">
      <stop offset="0" stop-color="#007489"/>
      <stop offset="1" stop-color="#00A8B5"/>
    </linearGradient>
    <linearGradient id="colciber-highlight" x1="34" y1="20" x2="106" y2="92" gradientUnits="userSpaceOnUse">
      <stop offset="0" stop-color="#F4F7FB" stop-opacity="0.95"/>
      <stop offset="1" stop-color="#C5E7ED" stop-opacity="0.65"/>
    </linearGradient>
  </defs>
  <rect x="8" y="8" width="112" height="112" rx="28" fill="url(#colciber-logo-gradient)"/>
  <path d="M86.296 41.872c-5.392-7.024-13.984-11.232-24.024-11.232-18.8 0-34.024 15.408-34.024 34.88 0 19.52 15.224 34.928 34.024 34.928 10.528 0 19.44-4.88 24.832-12.8l-10.752-7.184c-3.632 5.136-8.8 8.16-14.08 8.16-10.368 0-18.016-8.656-18.016-23.104 0-14.352 7.648-23.008 18.016-23.008 5.28 0 10.448 2.88 14.08 8.016l9.944-8.656z" fill="url(#colciber-highlight)"/>
  <path d="M95.416 49.808c0-2.8-2.064-5.264-4.944-5.264-1.232 0-2.352.4-3.248 1.072-6.544-9.424-17.168-15.408-28.952-15.408-19.776 0-35.84 16.064-35.84 35.84s16.064 35.84 35.84 35.84c11.952 0 23.312-5.904 29.68-15.648.896.672 2.016 1.072 3.248 1.072 2.88 0 4.944-2.464 4.944-5.264 0-2.512-1.488-4.592-3.584-5.136.336-2.448.512-4.976.512-7.472 0-2.544-.176-5.072-.512-7.52 2.096-.544 3.584-2.624 3.584-5.136zm-37.144 35.44c-15.232 0-27.6-12.368-27.6-27.6 0-15.232 12.368-27.6 27.6-27.6 8.656 0 16.464 4.16 21.424 10.4-1.488 1.648-2.416 3.888-2.416 6.256 0 2.304.848 4.448 2.256 6.08-.24 1.792-.352 3.648-.352 4.864 0 1.232.112 3.088.352 4.896-1.408 1.632-2.256 3.776-2.256 6.08 0 2.368.928 4.608 2.416 6.256-4.96 6.24-12.768 10.448-21.424 10.448z" fill="#F4F7FB"/>
</svg>
